Land_normalized_pl14_filtered_grf
version=1
nRows=22
nColumns=37
inDegrees=yes
endheader
time		1_ground_force_vx		1_ground_force_vy		1_ground_force_vz		1_ground_force_px		1_ground_force_py		1_ground_force_pz		1_ground_torque_x		1_ground_torque_y		1_ground_torque_z		2_ground_force_vx		2_ground_force_vy		2_ground_force_vz		2_ground_force_px		2_ground_force_py		2_ground_force_pz		2_ground_torque_x		2_ground_torque_y		2_ground_torque_z		3_ground_force_vx		3_ground_force_vy		3_ground_force_vz		3_ground_force_px		3_ground_force_py		3_ground_force_pz		3_ground_torque_x		3_ground_torque_y		3_ground_torque_z		4_ground_force_vx		4_ground_force_vy		4_ground_force_vz		4_ground_force_px		4_ground_force_py		4_ground_force_pz		4_ground_torque_x		4_ground_torque_y		4_ground_torque_z		
1.319500		3.794346		-30.781790		-20.930189		0.134010		0.000000		0.258623		-0.000503		0.004079		0.002774		-3.208535		-35.684920		-6.944950		-0.132383		0.000000		0.300436		0.084218		0.936658		0.182291		21.795215		2.152861		0.152776		0.375624		1.310818		1.913784		-0.089423		-0.008833		-0.000627		-19.861271		-0.266799		1.799656		-0.265469		1.309841		1.924684		0.011406		0.000153		-0.001034		
1.322328		5.730887		-47.836417		-35.259321		0.136987		0.000000		0.261417		-0.003196		0.026674		0.019668		-1.661254		-61.114947		-21.294149		-0.134771		0.000000		0.294566		0.031778		1.165373		0.405807		21.735460		2.070324		0.159253		0.375651		1.310823		1.913773		-0.089243		-0.008501		-0.000654		-19.835002		-0.240968		1.791900		-0.265475		1.309849		1.924679		0.011852		0.000144		-0.001071		
1.325157		6.096065		-50.935907		-41.257636		0.140237		0.000000		0.263733		-0.006199		0.051794		0.041975		1.820854		-71.996404		-33.841249		-0.138268		0.000000		0.290471		-0.027620		1.096204		0.515029		21.704348		1.966486		0.168947		0.375687		1.310825		1.913760		-0.089837		-0.008140		-0.000700		-19.769304		-0.263139		1.774426		-0.265476		1.309858		1.924681		0.012293		0.000164		-0.001104		
1.327985		3.579934		-27.334614		-30.074057		0.150127		0.000000		0.269007		-0.004252		0.032479		0.035706		7.167666		-52.133707		-37.061273		-0.146960		0.000000		0.285128		-0.089796		0.653229		0.464344		21.710758		1.866186		0.177990		0.375727		1.310830		1.913752		-0.091181		-0.007837		-0.000748		-19.671839		-0.331697		1.746064		-0.265472		1.309866		1.924689		0.012865		0.000217		-0.001142		
1.330813		-2.904844		34.785852		6.374765		0.118065		0.000000		0.254504		-0.054034		0.656908		0.102739		13.704398		13.972340		-21.883901		-0.197451		0.000000		0.314856		-0.599379		-0.137227		1.537825		21.755190		1.794672		0.182871		0.375766		1.310843		1.913752		-0.093040		-0.007675		-0.000783		-19.554406		-0.430421		1.703518		-0.265467		1.309871		1.924702		0.013853		0.000305		-0.001207		
1.333641		-13.644936		141.155059		71.428782		0.129419		0.000000		0.261733		-0.064906		0.671489		0.339574		20.199098		134.223056		19.305215		-0.120780		0.000000		0.286341		-0.493883		-3.272818		-0.467800		21.829005		1.767237		0.179863		0.375802		1.310863		1.913759		-0.095030		-0.007694		-0.000783		-19.430309		-0.533820		1.645898		-0.265462		1.309874		1.924718		0.015507		0.000426		-0.001314		
1.336470		-27.926164		289.418132		161.697828		0.132232		0.000000		0.263851		-0.099631		1.032547		0.576879		25.283404		305.516110		90.278320		-0.125139		0.000000		0.283315		-0.425958		-5.145956		-1.520370		21.916596		1.784474		0.166806		0.375830		1.310890		1.913773		-0.096797		-0.007881		-0.000737		-19.311225		-0.617276		1.578153		-0.265453		1.309877		1.924740		0.017854		0.000570		-0.001459		
1.339298		-43.988325		467.881148		265.674385		0.133450		0.000000		0.265464		-0.158582		1.686794		0.957800		28.052719		511.261232		188.395712		-0.126744		0.000000		0.279663		-0.373005		-6.793854		-2.502813		21.998137		1.832450		0.146822		0.375849		1.310918		1.913791		-0.098176		-0.008178		-0.000655		-19.205264		-0.664324		1.511098		-0.265440		1.309880		1.924766		0.020596		0.000713		-0.001621		
1.342126		-59.508094		657.457609		365.438587		0.134101		0.000000		0.267049		-0.248720		2.748046		1.527394		28.814605		723.698884		303.170275		-0.127237		0.000000		0.275418		-0.302071		-7.583522		-3.176349		22.056928		1.888150		0.129836		0.375859		1.310939		1.913807		-0.099249		-0.008496		-0.000584		-19.116362		-0.672004		1.456916		-0.265421		1.309883		1.924799		0.023203		0.000815		-0.001768		
1.344955		-72.534086		837.576024		441.831123		0.134488		0.000000		0.268754		-0.376440		4.346994		2.293003		29.328044		912.575279		418.666343		-0.127103		0.000000		0.270450		-0.226634		-7.050965		-3.234570		22.086674		1.929452		0.130181		0.375860		1.310944		1.913816		-0.100211		-0.008755		-0.000591		-19.047348		-0.649090		1.424525		-0.265395		1.309891		1.924836		0.025140		0.000857		-0.001880		
1.347783		-82.279538		990.970226		480.195073		0.134776		0.000000		0.270645		-0.544212		6.554913		3.175719		32.416905		1054.018721		516.776445		-0.126617		0.000000		0.264835		-0.155915		-5.070811		-2.485518		22.095701		1.942812		0.161820		0.375855		1.310924		1.913813		-0.101225		-0.008900		-0.000742		-19.002710		-0.611793		1.416199		-0.265362		1.309901		1.924881		0.026033		0.000838		-0.001940		
1.350611		-89.298758		1107.779039		476.221318		0.135075		0.000000		0.272693		-0.747617		9.274634		3.986378		40.578491		1138.558397		582.555945		-0.126076		0.000000		0.259011		-0.070357		-1.978594		-1.012093		22.104222		1.928643		0.230588		0.375849		1.310880		1.913798		-0.102311		-0.008927		-0.001067		-18.988389		-0.575989		1.425802		-0.265323		1.309913		1.924930		0.025777		0.000782		-0.001935		
1.353439		-94.603998		1185.574877		436.571028		0.135446		0.000000		0.274797		-0.975302		12.222471		4.500269		54.651295		1170.640953		607.383197		-0.125817		0.000000		0.253828		0.071156		1.520879		0.789099		22.132860		1.899804		0.330477		0.375841		1.310816		1.913776		-0.103345		-0.008871		-0.001543		-19.008528		-0.550189		1.442579		-0.265283		1.309927		1.924980		0.024519		0.000710		-0.001861		
1.356268		-98.765884		1228.560207		377.308659		0.135880		0.000000		0.276785		-1.205332		14.993038		4.603578		73.215774		1165.751734		590.961729		-0.126113		0.000000		0.250508		0.281791		4.481313		2.271312		22.189273		1.875654		0.443600		0.375836		1.310745		1.913753		-0.104072		-0.008797		-0.002081		-19.058253		-0.533835		1.458437		-0.265242		1.309939		1.925029		0.022589		0.000633		-0.001729		
1.359096		-101.582316		1245.056973		318.006074		0.136228		0.000000		0.278400		-1.411862		17.304546		4.419429		93.159560		1144.638553		541.298465		-0.127024		0.000000		0.250326		0.483230		5.936955		2.807492		22.260933		1.871753		0.545843		0.375835		1.310677		1.913735		-0.104200		-0.008762		-0.002555		-19.119782		-0.520988		1.474778		-0.265206		1.309948		1.925076		0.020354		0.000554		-0.001570		
1.361924		-102.431686		1243.780813		274.787170		0.136260		0.000000		0.279418		-1.576245		19.139598		4.228310		110.858344		1127.025269		471.523920		-0.128417		0.000000		0.254130		0.500278		5.087193		2.128859		22.322540		1.891481		0.615398		0.375837		1.310623		1.913728		-0.103543		-0.008773		-0.002855		-19.167756		-0.506309		1.502188		-0.265177		1.309954		1.925117		0.018070		0.000477		-0.001416		
1.364753		-100.808422		1232.051457		255.634924		0.135805		0.000000		0.279752		-1.685475		20.599590		4.274114		123.119860		1128.024373		397.070311		-0.130117		0.000000		0.261742		0.172874		1.586084		0.560843		22.353530		1.922728		0.640810		0.375844		1.310592		1.913736		-0.102144		-0.008786		-0.002928		-19.180075		-0.487604		1.552840		-0.265155		1.309956		1.925154		0.015871		0.000403		-0.001284		
1.367581		-96.510847		1214.653111		259.167968		0.134844		0.000000		0.279475		-1.728286		21.751881		4.641236		127.951271		1155.190560		331.554323		-0.131899		0.000000		0.271829		-0.457514		-4.131536		-1.184200		22.354917		1.943223		0.624972		0.375856		1.310585		1.913756		-0.100280		-0.008717		-0.002804		-19.148055		-0.465490		1.629682		-0.265143		1.309956		1.925186		0.013855		0.000337		-0.001179		
1.370409		-89.535777		1193.858402		277.946886		0.133485		0.000000		0.278769		-1.698509		22.648114		5.272931		124.725294		1207.966000		283.929228		-0.133287		0.000000		0.282464		-1.127414		-10.922113		-2.565917		22.349907		1.931849		0.581939		0.375873		1.310601		1.913788		-0.098339		-0.008500		-0.002561		-19.077659		-0.443325		1.720905		-0.265138		1.309955		1.925214		0.012212		0.000283		-0.001102		
1.373237		-80.149322		1170.309097		302.348048		0.131873		0.000000		0.277861		-1.603236		23.410872		6.048425		114.375158		1277.716193		256.874406		-0.133698		0.000000		0.291808		-1.557173		-17.402271		-3.497618		22.370793		1.880960		0.531039		0.375897		1.310628		1.913823		-0.096701		-0.008131		-0.002295		-18.986164		-0.427322		1.802501		-0.265135		1.309956		1.925240		0.011224		0.000253		-0.001066		
1.376066		-68.978802		1143.879572		324.303687		0.130122		0.000000		0.276916		-1.453926		24.111184		6.835913		99.258235		1350.502396		247.442539		-0.132918		0.000000		0.298663		-1.657182		-22.549853		-4.131530		22.440037		1.801987		0.487747		0.375926		1.310659		1.913858		-0.095600		-0.007677		-0.002078		-18.895375		-0.425285		1.850611		-0.265132		1.309959		1.925263		0.011130		0.000250		-0.001090		
1.378894		-56.961420		1114.357356		338.574081		0.128329		0.000000		0.275942		-1.259338		24.637926		7.485813		82.848665		1411.018901		249.790760		-0.131236		0.000000		0.302499		-1.521234		-25.910468		-4.586875		22.559336		1.720504		0.460199		0.375960		1.310684		1.913889		-0.095070		-0.007250		-0.001940		-18.825643		-0.444976		1.854440		-0.265125		1.309965		1.925284		0.011963		0.000283		-0.001179		
